<svg xmlns="http://www.w3.org/2000/svg" version="1.1" xmlns:xlink="http://www.w3.org/1999/xlink" xmlns:svgjs="http://svgjs.com/svgjs" width="1920" height="1080" preserveAspectRatio="none" viewBox="0 0 10000 5000">
    <g mask="url(&quot;#SvgjsMask2258&quot;)" fill="none">
        <rect width="10000" height="5000" x="0" y="0" fill="url(#SvgjsLinearGradient2259)"></rect>
        <path d="M5624.7 1087.05 a1040.64 1040.64 0 1 0 2081.28 0 a1040.64 1040.64 0 1 0 -2081.28 0z" fill="rgba(66, 66, 66, 1)" class="triangle-float3"></path>
        <path d="M-262.53 4559.69 a980.73 980.73 0 1 0 1961.46 0 a980.73 980.73 0 1 0 -1961.46 0z" fill="rgba(66, 66, 66, 1)" class="triangle-float3"></path>
        <path d="M8692.25 4519.15 a1107.94 1107.94 0 1 0 2215.88 0 a1107.94 1107.94 0 1 0 -2215.88 0z" fill="rgba(66, 66, 66, 1)" class="triangle-float3"></path>
        <path d="M4855.876695688582 634.5074799215748L4955.666334187668 1775.1082672397742 6096.267121505867 1675.318628740688 5996.477483006782 534.7178414224887z" fill="rgba(66, 66, 66, 1)" class="triangle-float1"></path>
        <path d="M1854.8 1573.86 a1223.78 1223.78 0 1 0 2447.56 0 a1223.78 1223.78 0 1 0 -2447.56 0z" fill="rgba(66, 66, 66, 1)" class="triangle-float1"></path>
    </g>
    <defs>
        <mask id="SvgjsMask2258">
            <rect width="10000" height="5000" fill="#ffffff"></rect>
        </mask>
        <linearGradient x1="50%" y1="100%" x2="50%" y2="0%" gradientUnits="userSpaceOnUse" id="SvgjsLinearGradient2259">
            <stop stop-color="rgba(75, 75, 75, 1)" offset="0"></stop>
            <stop stop-color="rgba(87, 87, 87, 1)" offset="1"></stop>
        </linearGradient>
        <style>
            @keyframes float1 {
                0%{transform: translate(0, 0)}
                50%{transform: translate(-80px, 0)}
                100%{transform: translate(0, 0)}
            }

            .triangle-float1 {
                animation: float1 5s infinite;
            }

            @keyframes float2 {
                0%{transform: translate(0, 0)}
                50%{transform: translate(-50px, -50px)}
                100%{transform: translate(0, 0)}
            }

            .triangle-float2 {
                animation: float2 4s infinite;
            }

            @keyframes float3 {
                0%{transform: translate(0, 0)}
                50%{transform: translate(0, -100px)}
                100%{transform: translate(0, 0)}
            }

            .triangle-float3 {
                animation: float3 6s infinite;
            }
        </style>
    </defs>
</svg>